<svg version="1.2" xmlns="http://www.w3.org/2000/svg" viewBox="0 0 595 595" width="595" height="595">
	<style>
		.s0 { fill: #f1f2ee } 
		.s1 { fill: #f1f2ee;stroke: #f1f2ee } 
	</style>
	<g id="Layer 1">
		<path id="EduTrack" class="s0" aria-label="EduTrack"  d="m130.6 520h-46.5v-76.1h46.5v8.1h-37.3v25.5h35.1v8.1h-35.1v26.3h37.3zm50.6 0v-9.1h-0.4q-5.1 10.4-16.5 10.4-5.2 0-9.4-2-4.3-2.1-7.3-5.9-3-3.8-4.6-9.3-1.6-5.4-1.6-12.2 0-6.7 1.6-12.2 1.6-5.4 4.6-9.2 3-3.9 7.3-5.9 4.2-2.1 9.4-2.1 5.9 0 10.1 2.6 4.2 2.5 6.4 7.9h0.4v-33.6h8.7v80.6zm-14.5-6.5q3 0 5.6-0.8 2.7-0.7 4.7-2.1 2-1.6 3-3.6 1.2-2.2 1.2-4.9v-21q0-2.3-1.2-4.2-1-2.1-3-3.5-2-1.4-4.7-2.2-2.6-0.9-5.6-0.9-7.4 0-11.6 4.7-4.3 4.6-4.3 12.1v9.6q0 7.5 4.3 12.2 4.2 4.6 11.6 4.6zm76.2 6.5v-9.1h-0.4q-0.9 1.9-2.2 3.9-1.2 1.9-3 3.4-1.9 1.4-4.5 2.3-2.6 0.8-6.1 0.8-8.7 0-13.8-5.5-5.2-5.7-5.2-15.9v-36.1h8.8v34.6q0 15.1 12.8 15.1 2.6 0 5-0.7 2.5-0.6 4.4-1.9 1.9-1.3 3-3.3 1.2-2.1 1.2-4.9v-38.9h8.8v56.2zm73-68h-24.2v68h-9.2v-68h-24.2v-8h57.6zm16 68h-8.7v-56.3h8.7v10.4h0.6q1.5-4 5.4-7.2 3.9-3.2 10.8-3.2h3.4v8.8h-5.1q-7.1 0-11.2 2.7-3.9 2.6-3.9 6.6zm76.1 0h-4.9q-4.9 0-7.1-2.6-2.1-2.6-2.6-6.5h-0.6q-1.8 5.2-6.1 7.8-4.2 2.6-10.1 2.6-9 0-14-4.5-4.9-4.6-4.9-12.5 0-7.9 5.8-12.2 5.9-4.2 18.2-4.2h11.1v-5.6q0-6-3.3-9.1-3.2-3.2-10-3.2-5.1 0-8.6 2.3-3.4 2.3-5.7 6.1l-5.2-4.9q2.3-4.6 7.3-7.7 5-3.3 12.7-3.3 10.2 0 15.9 5 5.6 5 5.6 14v30.9h6.5zm-30-6.1q3.3 0 6-0.8 2.7-0.7 4.7-2.1 1.9-1.5 3-3.3 1.1-1.9 1.1-4v-9.3h-11.5q-7.6 0-11 2.2-3.4 2.2-3.4 6.3v2.3q0 4.1 2.9 6.4 3.1 2.3 8.2 2.3zm64.1 7.4q-5.9 0-10.5-2.1-4.7-2-8-5.8-3.2-3.9-4.9-9.3-1.6-5.5-1.6-12.2 0-6.8 1.6-12.2 1.7-5.5 4.9-9.3 3.3-3.8 8-5.9 4.6-2 10.5-2 8.4 0 13.4 3.7 5.1 3.6 7.7 9.5l-7.3 3.7q-1.6-4.4-5.1-6.8-3.4-2.4-8.7-2.4-3.9 0-6.8 1.3-3 1.2-4.9 3.5-2 2.2-3 5.3-1 3.1-1 6.8v9.6q0 7.4 4 12.2 4 4.7 11.7 4.7 10.6 0 15.3-9.8l6.3 4.2q-2.7 6.1-8.2 9.7-5.3 3.6-13.4 3.6zm33.1-1.3v-80.6h8.7v51.1h0.5l8.6-9.6 15.9-17.1h10.5l-20.8 22.2 22.9 34h-10.6l-18.6-28.7-8.4 8.7v20z"/>
		<path id="Combined-Shape" fill-rule="evenodd" class="s1" d="m515.75 74c-24.71 30.79-16.19 58.95-25.63 99.08-9.43 40.13-39.51 49.59-53.05 53.35-44.7 17.64-91.39 61.54-126.84 123.5l-0.01 19.64c42.5-78.77 109.38-139.79 197.69-135.54l7.84 30.01c-52.83-17.54-131.54 24.06-205.53 106.64l-0.01 20.37c44.33-77.09 134.03-132 196.05-109.54l9.49 29.34c-41.2-22.9-124.45-2.04-205.54 81.27v9.98l0.2-0.24c55.23-62.9 137.09-82.67 192.26-70.06l13.08 26.77c-58.81-18.64-144.97-5.14-205.55 56.41v1.6c-3.2 7.97-15.13 7.97-18.2 0v-0.11c-60.64-62.82-147.72-76.69-207-57.9l13.08-26.77c55.73-12.74 138.69 7.57 193.92 71.98v-51.24c-35.63-63.34-83-108.22-128.32-126.11-13.54-3.76-43.62-13.22-53.05-53.35-9.44-40.13-0.92-68.29-25.63-99.08 88.41 25.48 165.35 49.34 207 178.3v-0.22h0.23c11.61-10.15-3.39-91.66-37.35-108.07-27.86-3.25 11-37.28 11-3.25 25.05 26.54 31.62 55.96 35.1 83.76l0.16 0.66 0.15-0.66c3.45-27.49 9.91-56.58 34.3-82.9l0.81-0.86c0-34.03 38.85 0 11 3.25-32.7 15.8-47.82 91.93-38.54 106.65l0.28 0.42 0.87-2.62c41.93-125.6 118.21-149.23 205.74-174.46zm-223.75 319.64c-81.54-84.58-165.55-105.83-207-82.79l9.49-29.34c62.72-22.71 153.72 33.69 197.51 112.13zm-1.28-23.71l1.28 2.4-2.23-2.5c-73.77-82.02-152.13-123.27-204.77-105.79l7.84-30.01c88.45-4.25 155.39 56.96 197.88 135.9zm-173.56-266.9c18.1 22.27 11.63 51.68 18.77 71.66 7.14 19.97 29.4 37.9 39.29 41.74 40.23 14.62 99.01 89.37 114.01 124.82-2.72-26.03-2.19-54.74-11.15-91.28-30.52-93.28-96.16-128.51-160.92-146.94zm367.64-0.68c-64.77 18.43-130.41 53.66-160.92 146.93-8.97 36.54-8.43 65.26-11.15 91.29 14.99-35.45 73.78-110.2 114.01-124.82 9.89-3.85 32.15-21.77 39.29-41.75 2.84-7.94 3.52-17.38 4.46-27.27l0.16-1.69c1.42-14.48 3.66-29.79 14.15-42.69z"/>
	</g>
</svg>